<mxfile host="65bd71144e">
    <diagram id="69J9MouefKNhpPD-8pGl" name="Page-1">
        <mxGraphModel dx="752" dy="518" grid="1" gridSize="10" guides="1" tooltips="1" connect="1" arrows="1" fold="1" page="1" pageScale="1" pageWidth="850" pageHeight="1100" math="0" shadow="0">
            <root>
                <mxCell id="0"/>
                <mxCell id="1" parent="0"/>
                <mxCell id="2" value="" style="rounded=0;whiteSpace=wrap;html=1;" parent="1" vertex="1">
                    <mxGeometry width="850" height="160" as="geometry"/>
                </mxCell>
                <mxCell id="3" value="&lt;font style=&quot;font-size: 34px&quot;&gt;Footer&lt;/font&gt;" style="rounded=0;whiteSpace=wrap;html=1;" parent="1" vertex="1">
                    <mxGeometry y="960" width="850" height="140" as="geometry"/>
                </mxCell>
                <mxCell id="6" value="&lt;font style=&quot;font-size: 30px&quot;&gt;Logo&lt;/font&gt;" style="whiteSpace=wrap;html=1;aspect=fixed;" parent="1" vertex="1">
                    <mxGeometry x="30" y="30" width="80" height="80" as="geometry"/>
                </mxCell>
                <mxCell id="7" value="&lt;font style=&quot;font-size: 20px&quot; color=&quot;#1a1a1a&quot;&gt;Nhân Viên&lt;/font&gt;" style="rounded=1;whiteSpace=wrap;html=1;fontSize=30;fillColor=#d0cee2;strokeColor=#56517e;" parent="1" vertex="1">
                    <mxGeometry x="120" y="40" width="120" height="60" as="geometry"/>
                </mxCell>
                <mxCell id="8" value="&lt;font style=&quot;font-size: 20px&quot;&gt;Lương&lt;/font&gt;" style="rounded=1;whiteSpace=wrap;html=1;fontSize=30;" parent="1" vertex="1">
                    <mxGeometry x="380" y="40" width="120" height="60" as="geometry"/>
                </mxCell>
                <mxCell id="9" value="&lt;font style=&quot;font-size: 20px&quot;&gt;Phòng Ban&lt;/font&gt;" style="rounded=1;whiteSpace=wrap;html=1;fontSize=30;" parent="1" vertex="1">
                    <mxGeometry x="250" y="40" width="120" height="60" as="geometry"/>
                </mxCell>
                <mxCell id="10" value="&lt;font style=&quot;font-size: 20px&quot;&gt;Tìm kiếm&lt;/font&gt;" style="rounded=1;whiteSpace=wrap;html=1;fontSize=30;" parent="1" vertex="1">
                    <mxGeometry x="540" y="40" width="290" height="60" as="geometry"/>
                </mxCell>
                <mxCell id="11" value="Nhân viên" style="rounded=0;whiteSpace=wrap;html=1;fontSize=20;" parent="1" vertex="1">
                    <mxGeometry x="40" y="190" width="120" height="60" as="geometry"/>
                </mxCell>
                <mxCell id="12" value="Add" style="whiteSpace=wrap;html=1;aspect=fixed;fontSize=20;" parent="1" vertex="1">
                    <mxGeometry x="260" y="190" width="60" height="60" as="geometry"/>
                </mxCell>
                <mxCell id="13" value="Sắp xếp" style="rounded=0;whiteSpace=wrap;html=1;fontSize=20;" parent="1" vertex="1">
                    <mxGeometry x="550" y="190" width="270" height="60" as="geometry"/>
                </mxCell>
                <mxCell id="14" value="" style="shape=link;html=1;fontSize=20;" parent="1" edge="1">
                    <mxGeometry width="100" relative="1" as="geometry">
                        <mxPoint x="30" y="280" as="sourcePoint"/>
                        <mxPoint x="830" y="280" as="targetPoint"/>
                    </mxGeometry>
                </mxCell>
                <mxCell id="15" value="Nhân Viên &lt;br&gt;A" style="whiteSpace=wrap;html=1;aspect=fixed;fontSize=20;" parent="1" vertex="1">
                    <mxGeometry x="40" y="320" width="120" height="120" as="geometry"/>
                </mxCell>
                <mxCell id="16" value="&#10;&#10;&lt;span style=&quot;color: rgb(240, 240, 240); font-family: helvetica; font-size: 20px; font-style: normal; font-weight: 400; letter-spacing: normal; text-align: center; text-indent: 0px; text-transform: none; word-spacing: 0px; background-color: rgb(42, 42, 42); display: inline; float: none;&quot;&gt;Nhân Viên&lt;/span&gt;&lt;br style=&quot;color: rgb(240, 240, 240); font-family: helvetica; font-size: 20px; font-style: normal; font-weight: 400; letter-spacing: normal; text-align: center; text-indent: 0px; text-transform: none; word-spacing: 0px; background-color: rgb(42, 42, 42);&quot;&gt;&lt;span style=&quot;color: rgb(240, 240, 240); font-family: helvetica; font-size: 20px; font-style: normal; font-weight: 400; letter-spacing: normal; text-align: center; text-indent: 0px; text-transform: none; word-spacing: 0px; background-color: rgb(42, 42, 42); display: inline; float: none;&quot;&gt;A&lt;/span&gt;&#10;&#10;" style="whiteSpace=wrap;html=1;aspect=fixed;fontSize=20;" parent="1" vertex="1">
                    <mxGeometry x="200" y="320" width="120" height="120" as="geometry"/>
                </mxCell>
                <mxCell id="17" value="&#10;&#10;&lt;span style=&quot;color: rgb(240, 240, 240); font-family: helvetica; font-size: 20px; font-style: normal; font-weight: 400; letter-spacing: normal; text-align: center; text-indent: 0px; text-transform: none; word-spacing: 0px; background-color: rgb(42, 42, 42); display: inline; float: none;&quot;&gt;Nhân Viên&lt;/span&gt;&lt;br style=&quot;color: rgb(240, 240, 240); font-family: helvetica; font-size: 20px; font-style: normal; font-weight: 400; letter-spacing: normal; text-align: center; text-indent: 0px; text-transform: none; word-spacing: 0px; background-color: rgb(42, 42, 42);&quot;&gt;&lt;span style=&quot;color: rgb(240, 240, 240); font-family: helvetica; font-size: 20px; font-style: normal; font-weight: 400; letter-spacing: normal; text-align: center; text-indent: 0px; text-transform: none; word-spacing: 0px; background-color: rgb(42, 42, 42); display: inline; float: none;&quot;&gt;A&lt;/span&gt;&#10;&#10;" style="whiteSpace=wrap;html=1;aspect=fixed;fontSize=20;" parent="1" vertex="1">
                    <mxGeometry x="360" y="320" width="120" height="120" as="geometry"/>
                </mxCell>
                <mxCell id="18" value="&#10;&#10;&lt;span style=&quot;color: rgb(240, 240, 240); font-family: helvetica; font-size: 20px; font-style: normal; font-weight: 400; letter-spacing: normal; text-align: center; text-indent: 0px; text-transform: none; word-spacing: 0px; background-color: rgb(42, 42, 42); display: inline; float: none;&quot;&gt;Nhân Viên&lt;/span&gt;&lt;br style=&quot;color: rgb(240, 240, 240); font-family: helvetica; font-size: 20px; font-style: normal; font-weight: 400; letter-spacing: normal; text-align: center; text-indent: 0px; text-transform: none; word-spacing: 0px; background-color: rgb(42, 42, 42);&quot;&gt;&lt;span style=&quot;color: rgb(240, 240, 240); font-family: helvetica; font-size: 20px; font-style: normal; font-weight: 400; letter-spacing: normal; text-align: center; text-indent: 0px; text-transform: none; word-spacing: 0px; background-color: rgb(42, 42, 42); display: inline; float: none;&quot;&gt;A&lt;/span&gt;&#10;&#10;" style="whiteSpace=wrap;html=1;aspect=fixed;fontSize=20;" parent="1" vertex="1">
                    <mxGeometry x="520" y="320" width="120" height="120" as="geometry"/>
                </mxCell>
                <mxCell id="19" value="&#10;&#10;&lt;span style=&quot;color: rgb(240, 240, 240); font-family: helvetica; font-size: 20px; font-style: normal; font-weight: 400; letter-spacing: normal; text-align: center; text-indent: 0px; text-transform: none; word-spacing: 0px; background-color: rgb(42, 42, 42); display: inline; float: none;&quot;&gt;Nhân Viên&lt;/span&gt;&lt;br style=&quot;color: rgb(240, 240, 240); font-family: helvetica; font-size: 20px; font-style: normal; font-weight: 400; letter-spacing: normal; text-align: center; text-indent: 0px; text-transform: none; word-spacing: 0px; background-color: rgb(42, 42, 42);&quot;&gt;&lt;span style=&quot;color: rgb(240, 240, 240); font-family: helvetica; font-size: 20px; font-style: normal; font-weight: 400; letter-spacing: normal; text-align: center; text-indent: 0px; text-transform: none; word-spacing: 0px; background-color: rgb(42, 42, 42); display: inline; float: none;&quot;&gt;A&lt;/span&gt;&#10;&#10;" style="whiteSpace=wrap;html=1;aspect=fixed;fontSize=20;" parent="1" vertex="1">
                    <mxGeometry x="680" y="320" width="120" height="120" as="geometry"/>
                </mxCell>
                <mxCell id="22" value="&#10;&#10;&lt;span style=&quot;color: rgb(240, 240, 240); font-family: helvetica; font-size: 20px; font-style: normal; font-weight: 400; letter-spacing: normal; text-align: center; text-indent: 0px; text-transform: none; word-spacing: 0px; background-color: rgb(42, 42, 42); display: inline; float: none;&quot;&gt;Nhân Viên&lt;/span&gt;&lt;br style=&quot;color: rgb(240, 240, 240); font-family: helvetica; font-size: 20px; font-style: normal; font-weight: 400; letter-spacing: normal; text-align: center; text-indent: 0px; text-transform: none; word-spacing: 0px; background-color: rgb(42, 42, 42);&quot;&gt;&lt;span style=&quot;color: rgb(240, 240, 240); font-family: helvetica; font-size: 20px; font-style: normal; font-weight: 400; letter-spacing: normal; text-align: center; text-indent: 0px; text-transform: none; word-spacing: 0px; background-color: rgb(42, 42, 42); display: inline; float: none;&quot;&gt;A&lt;/span&gt;&#10;&#10;" style="whiteSpace=wrap;html=1;aspect=fixed;fontSize=20;" parent="1" vertex="1">
                    <mxGeometry x="40" y="480" width="120" height="120" as="geometry"/>
                </mxCell>
                <mxCell id="23" value="&#10;&#10;&lt;span style=&quot;color: rgb(240, 240, 240); font-family: helvetica; font-size: 20px; font-style: normal; font-weight: 400; letter-spacing: normal; text-align: center; text-indent: 0px; text-transform: none; word-spacing: 0px; background-color: rgb(42, 42, 42); display: inline; float: none;&quot;&gt;Nhân Viên&lt;/span&gt;&lt;br style=&quot;color: rgb(240, 240, 240); font-family: helvetica; font-size: 20px; font-style: normal; font-weight: 400; letter-spacing: normal; text-align: center; text-indent: 0px; text-transform: none; word-spacing: 0px; background-color: rgb(42, 42, 42);&quot;&gt;&lt;span style=&quot;color: rgb(240, 240, 240); font-family: helvetica; font-size: 20px; font-style: normal; font-weight: 400; letter-spacing: normal; text-align: center; text-indent: 0px; text-transform: none; word-spacing: 0px; background-color: rgb(42, 42, 42); display: inline; float: none;&quot;&gt;A&lt;/span&gt;&#10;&#10;" style="whiteSpace=wrap;html=1;aspect=fixed;fontSize=20;" parent="1" vertex="1">
                    <mxGeometry x="200" y="480" width="120" height="120" as="geometry"/>
                </mxCell>
                <mxCell id="24" value="&#10;&#10;&lt;span style=&quot;color: rgb(240, 240, 240); font-family: helvetica; font-size: 20px; font-style: normal; font-weight: 400; letter-spacing: normal; text-align: center; text-indent: 0px; text-transform: none; word-spacing: 0px; background-color: rgb(42, 42, 42); display: inline; float: none;&quot;&gt;Nhân Viên&lt;/span&gt;&lt;br style=&quot;color: rgb(240, 240, 240); font-family: helvetica; font-size: 20px; font-style: normal; font-weight: 400; letter-spacing: normal; text-align: center; text-indent: 0px; text-transform: none; word-spacing: 0px; background-color: rgb(42, 42, 42);&quot;&gt;&lt;span style=&quot;color: rgb(240, 240, 240); font-family: helvetica; font-size: 20px; font-style: normal; font-weight: 400; letter-spacing: normal; text-align: center; text-indent: 0px; text-transform: none; word-spacing: 0px; background-color: rgb(42, 42, 42); display: inline; float: none;&quot;&gt;A&lt;/span&gt;&#10;&#10;" style="whiteSpace=wrap;html=1;aspect=fixed;fontSize=20;" parent="1" vertex="1">
                    <mxGeometry x="360" y="480" width="120" height="120" as="geometry"/>
                </mxCell>
                <mxCell id="25" value="&#10;&#10;&lt;span style=&quot;color: rgb(240, 240, 240); font-family: helvetica; font-size: 20px; font-style: normal; font-weight: 400; letter-spacing: normal; text-align: center; text-indent: 0px; text-transform: none; word-spacing: 0px; background-color: rgb(42, 42, 42); display: inline; float: none;&quot;&gt;Nhân Viên&lt;/span&gt;&lt;br style=&quot;color: rgb(240, 240, 240); font-family: helvetica; font-size: 20px; font-style: normal; font-weight: 400; letter-spacing: normal; text-align: center; text-indent: 0px; text-transform: none; word-spacing: 0px; background-color: rgb(42, 42, 42);&quot;&gt;&lt;span style=&quot;color: rgb(240, 240, 240); font-family: helvetica; font-size: 20px; font-style: normal; font-weight: 400; letter-spacing: normal; text-align: center; text-indent: 0px; text-transform: none; word-spacing: 0px; background-color: rgb(42, 42, 42); display: inline; float: none;&quot;&gt;A&lt;/span&gt;&#10;&#10;" style="whiteSpace=wrap;html=1;aspect=fixed;fontSize=20;" parent="1" vertex="1">
                    <mxGeometry x="520" y="480" width="120" height="120" as="geometry"/>
                </mxCell>
                <mxCell id="26" value="&#10;&#10;&lt;span style=&quot;color: rgb(240, 240, 240); font-family: helvetica; font-size: 20px; font-style: normal; font-weight: 400; letter-spacing: normal; text-align: center; text-indent: 0px; text-transform: none; word-spacing: 0px; background-color: rgb(42, 42, 42); display: inline; float: none;&quot;&gt;Nhân Viên&lt;/span&gt;&lt;br style=&quot;color: rgb(240, 240, 240); font-family: helvetica; font-size: 20px; font-style: normal; font-weight: 400; letter-spacing: normal; text-align: center; text-indent: 0px; text-transform: none; word-spacing: 0px; background-color: rgb(42, 42, 42);&quot;&gt;&lt;span style=&quot;color: rgb(240, 240, 240); font-family: helvetica; font-size: 20px; font-style: normal; font-weight: 400; letter-spacing: normal; text-align: center; text-indent: 0px; text-transform: none; word-spacing: 0px; background-color: rgb(42, 42, 42); display: inline; float: none;&quot;&gt;A&lt;/span&gt;&#10;&#10;" style="whiteSpace=wrap;html=1;aspect=fixed;fontSize=20;" parent="1" vertex="1">
                    <mxGeometry x="680" y="480" width="120" height="120" as="geometry"/>
                </mxCell>
                <mxCell id="27" value="&#10;&#10;&lt;span style=&quot;color: rgb(240, 240, 240); font-family: helvetica; font-size: 20px; font-style: normal; font-weight: 400; letter-spacing: normal; text-align: center; text-indent: 0px; text-transform: none; word-spacing: 0px; background-color: rgb(42, 42, 42); display: inline; float: none;&quot;&gt;Nhân Viên&lt;/span&gt;&lt;br style=&quot;color: rgb(240, 240, 240); font-family: helvetica; font-size: 20px; font-style: normal; font-weight: 400; letter-spacing: normal; text-align: center; text-indent: 0px; text-transform: none; word-spacing: 0px; background-color: rgb(42, 42, 42);&quot;&gt;&lt;span style=&quot;color: rgb(240, 240, 240); font-family: helvetica; font-size: 20px; font-style: normal; font-weight: 400; letter-spacing: normal; text-align: center; text-indent: 0px; text-transform: none; word-spacing: 0px; background-color: rgb(42, 42, 42); display: inline; float: none;&quot;&gt;A&lt;/span&gt;&#10;&#10;" style="whiteSpace=wrap;html=1;aspect=fixed;fontSize=20;" parent="1" vertex="1">
                    <mxGeometry x="40" y="650" width="120" height="120" as="geometry"/>
                </mxCell>
                <mxCell id="28" value="&#10;&#10;&lt;span style=&quot;color: rgb(240, 240, 240); font-family: helvetica; font-size: 20px; font-style: normal; font-weight: 400; letter-spacing: normal; text-align: center; text-indent: 0px; text-transform: none; word-spacing: 0px; background-color: rgb(42, 42, 42); display: inline; float: none;&quot;&gt;Nhân Viên&lt;/span&gt;&lt;br style=&quot;color: rgb(240, 240, 240); font-family: helvetica; font-size: 20px; font-style: normal; font-weight: 400; letter-spacing: normal; text-align: center; text-indent: 0px; text-transform: none; word-spacing: 0px; background-color: rgb(42, 42, 42);&quot;&gt;&lt;span style=&quot;color: rgb(240, 240, 240); font-family: helvetica; font-size: 20px; font-style: normal; font-weight: 400; letter-spacing: normal; text-align: center; text-indent: 0px; text-transform: none; word-spacing: 0px; background-color: rgb(42, 42, 42); display: inline; float: none;&quot;&gt;A&lt;/span&gt;&#10;&#10;" style="whiteSpace=wrap;html=1;aspect=fixed;fontSize=20;" parent="1" vertex="1">
                    <mxGeometry x="200" y="650" width="120" height="120" as="geometry"/>
                </mxCell>
                <mxCell id="29" value="&#10;&#10;&lt;span style=&quot;color: rgb(240, 240, 240); font-family: helvetica; font-size: 20px; font-style: normal; font-weight: 400; letter-spacing: normal; text-align: center; text-indent: 0px; text-transform: none; word-spacing: 0px; background-color: rgb(42, 42, 42); display: inline; float: none;&quot;&gt;Nhân Viên&lt;/span&gt;&lt;br style=&quot;color: rgb(240, 240, 240); font-family: helvetica; font-size: 20px; font-style: normal; font-weight: 400; letter-spacing: normal; text-align: center; text-indent: 0px; text-transform: none; word-spacing: 0px; background-color: rgb(42, 42, 42);&quot;&gt;&lt;span style=&quot;color: rgb(240, 240, 240); font-family: helvetica; font-size: 20px; font-style: normal; font-weight: 400; letter-spacing: normal; text-align: center; text-indent: 0px; text-transform: none; word-spacing: 0px; background-color: rgb(42, 42, 42); display: inline; float: none;&quot;&gt;A&lt;/span&gt;&#10;&#10;" style="whiteSpace=wrap;html=1;aspect=fixed;fontSize=20;" parent="1" vertex="1">
                    <mxGeometry x="360" y="650" width="120" height="120" as="geometry"/>
                </mxCell>
                <mxCell id="30" value="&#10;&#10;&lt;span style=&quot;color: rgb(240, 240, 240); font-family: helvetica; font-size: 20px; font-style: normal; font-weight: 400; letter-spacing: normal; text-align: center; text-indent: 0px; text-transform: none; word-spacing: 0px; background-color: rgb(42, 42, 42); display: inline; float: none;&quot;&gt;Nhân Viên&lt;/span&gt;&lt;br style=&quot;color: rgb(240, 240, 240); font-family: helvetica; font-size: 20px; font-style: normal; font-weight: 400; letter-spacing: normal; text-align: center; text-indent: 0px; text-transform: none; word-spacing: 0px; background-color: rgb(42, 42, 42);&quot;&gt;&lt;span style=&quot;color: rgb(240, 240, 240); font-family: helvetica; font-size: 20px; font-style: normal; font-weight: 400; letter-spacing: normal; text-align: center; text-indent: 0px; text-transform: none; word-spacing: 0px; background-color: rgb(42, 42, 42); display: inline; float: none;&quot;&gt;A&lt;/span&gt;&#10;&#10;" style="whiteSpace=wrap;html=1;aspect=fixed;fontSize=20;" parent="1" vertex="1">
                    <mxGeometry x="520" y="650" width="120" height="120" as="geometry"/>
                </mxCell>
                <mxCell id="31" value="&#10;&#10;&lt;span style=&quot;color: rgb(240, 240, 240); font-family: helvetica; font-size: 20px; font-style: normal; font-weight: 400; letter-spacing: normal; text-align: center; text-indent: 0px; text-transform: none; word-spacing: 0px; background-color: rgb(42, 42, 42); display: inline; float: none;&quot;&gt;Nhân Viên&lt;/span&gt;&lt;br style=&quot;color: rgb(240, 240, 240); font-family: helvetica; font-size: 20px; font-style: normal; font-weight: 400; letter-spacing: normal; text-align: center; text-indent: 0px; text-transform: none; word-spacing: 0px; background-color: rgb(42, 42, 42);&quot;&gt;&lt;span style=&quot;color: rgb(240, 240, 240); font-family: helvetica; font-size: 20px; font-style: normal; font-weight: 400; letter-spacing: normal; text-align: center; text-indent: 0px; text-transform: none; word-spacing: 0px; background-color: rgb(42, 42, 42); display: inline; float: none;&quot;&gt;A&lt;/span&gt;&#10;&#10;" style="whiteSpace=wrap;html=1;aspect=fixed;fontSize=20;" parent="1" vertex="1">
                    <mxGeometry x="680" y="650" width="120" height="120" as="geometry"/>
                </mxCell>
                <mxCell id="32" value="&#10;&#10;&lt;span style=&quot;color: rgb(240, 240, 240); font-family: helvetica; font-size: 20px; font-style: normal; font-weight: 400; letter-spacing: normal; text-align: center; text-indent: 0px; text-transform: none; word-spacing: 0px; background-color: rgb(42, 42, 42); display: inline; float: none;&quot;&gt;Nhân Viên&lt;/span&gt;&lt;br style=&quot;color: rgb(240, 240, 240); font-family: helvetica; font-size: 20px; font-style: normal; font-weight: 400; letter-spacing: normal; text-align: center; text-indent: 0px; text-transform: none; word-spacing: 0px; background-color: rgb(42, 42, 42);&quot;&gt;&lt;span style=&quot;color: rgb(240, 240, 240); font-family: helvetica; font-size: 20px; font-style: normal; font-weight: 400; letter-spacing: normal; text-align: center; text-indent: 0px; text-transform: none; word-spacing: 0px; background-color: rgb(42, 42, 42); display: inline; float: none;&quot;&gt;A&lt;/span&gt;&#10;&#10;" style="whiteSpace=wrap;html=1;aspect=fixed;fontSize=20;" parent="1" vertex="1">
                    <mxGeometry x="40" y="800" width="120" height="120" as="geometry"/>
                </mxCell>
            </root>
        </mxGraphModel>
    </diagram>
    <diagram id="QCx85nBpHnzG5xGLL7i-" name="Page-2">
        <mxGraphModel dx="752" dy="518" grid="1" gridSize="10" guides="1" tooltips="1" connect="1" arrows="1" fold="1" page="1" pageScale="1" pageWidth="850" pageHeight="1100" math="0" shadow="0">
            <root>
                <mxCell id="5czEShFYDCb_d3hVmCYa-0"/>
                <mxCell id="5czEShFYDCb_d3hVmCYa-1" parent="5czEShFYDCb_d3hVmCYa-0"/>
                <mxCell id="g-f5JZvcK8C0UTRrMB-N-0" value="" style="rounded=0;whiteSpace=wrap;html=1;" parent="5czEShFYDCb_d3hVmCYa-1" vertex="1">
                    <mxGeometry width="850" height="160" as="geometry"/>
                </mxCell>
                <mxCell id="g-f5JZvcK8C0UTRrMB-N-1" value="&lt;font style=&quot;font-size: 34px&quot;&gt;Footer&lt;/font&gt;" style="rounded=0;whiteSpace=wrap;html=1;" parent="5czEShFYDCb_d3hVmCYa-1" vertex="1">
                    <mxGeometry y="960" width="850" height="140" as="geometry"/>
                </mxCell>
                <mxCell id="g-f5JZvcK8C0UTRrMB-N-2" value="&lt;font style=&quot;font-size: 30px&quot;&gt;Logo&lt;/font&gt;" style="whiteSpace=wrap;html=1;aspect=fixed;" parent="5czEShFYDCb_d3hVmCYa-1" vertex="1">
                    <mxGeometry x="30" y="30" width="80" height="80" as="geometry"/>
                </mxCell>
                <mxCell id="g-f5JZvcK8C0UTRrMB-N-3" value="&lt;font style=&quot;font-size: 20px&quot; color=&quot;#ffffff&quot;&gt;Nhân Viên&lt;/font&gt;" style="rounded=1;whiteSpace=wrap;html=1;fontSize=30;" parent="5czEShFYDCb_d3hVmCYa-1" vertex="1">
                    <mxGeometry x="120" y="40" width="120" height="60" as="geometry"/>
                </mxCell>
                <mxCell id="g-f5JZvcK8C0UTRrMB-N-4" value="&lt;font style=&quot;font-size: 20px&quot;&gt;Lương&lt;/font&gt;" style="rounded=1;whiteSpace=wrap;html=1;fontSize=30;" parent="5czEShFYDCb_d3hVmCYa-1" vertex="1">
                    <mxGeometry x="380" y="40" width="120" height="60" as="geometry"/>
                </mxCell>
                <mxCell id="g-f5JZvcK8C0UTRrMB-N-5" value="&lt;font style=&quot;font-size: 20px&quot;&gt;Phòng Ban&lt;/font&gt;" style="rounded=1;whiteSpace=wrap;html=1;fontSize=30;fillColor=#f5f5f5;fontColor=#333333;strokeColor=#666666;" parent="5czEShFYDCb_d3hVmCYa-1" vertex="1">
                    <mxGeometry x="250" y="40" width="120" height="60" as="geometry"/>
                </mxCell>
                <mxCell id="g-f5JZvcK8C0UTRrMB-N-6" value="&lt;font style=&quot;font-size: 20px&quot;&gt;Tìm kiếm&lt;/font&gt;" style="rounded=1;whiteSpace=wrap;html=1;fontSize=30;" parent="5czEShFYDCb_d3hVmCYa-1" vertex="1">
                    <mxGeometry x="540" y="40" width="290" height="60" as="geometry"/>
                </mxCell>
                <mxCell id="g-f5JZvcK8C0UTRrMB-N-11" value="Sale" style="whiteSpace=wrap;html=1;aspect=fixed;fontSize=20;" parent="5czEShFYDCb_d3hVmCYa-1" vertex="1">
                    <mxGeometry x="40" y="240" width="200" height="200" as="geometry"/>
                </mxCell>
                <mxCell id="g-f5JZvcK8C0UTRrMB-N-12" value="HR" style="whiteSpace=wrap;html=1;aspect=fixed;fontSize=20;" parent="5czEShFYDCb_d3hVmCYa-1" vertex="1">
                    <mxGeometry x="280" y="240" width="200" height="200" as="geometry"/>
                </mxCell>
                <mxCell id="g-f5JZvcK8C0UTRrMB-N-13" value="Marketing" style="whiteSpace=wrap;html=1;aspect=fixed;fontSize=20;" parent="5czEShFYDCb_d3hVmCYa-1" vertex="1">
                    <mxGeometry x="520" y="240" width="200" height="200" as="geometry"/>
                </mxCell>
                <mxCell id="g-f5JZvcK8C0UTRrMB-N-28" value="IT" style="whiteSpace=wrap;html=1;aspect=fixed;fontSize=20;" parent="5czEShFYDCb_d3hVmCYa-1" vertex="1">
                    <mxGeometry x="40" y="480" width="200" height="200" as="geometry"/>
                </mxCell>
                <mxCell id="g-f5JZvcK8C0UTRrMB-N-29" value="Finance" style="whiteSpace=wrap;html=1;aspect=fixed;fontSize=20;" parent="5czEShFYDCb_d3hVmCYa-1" vertex="1">
                    <mxGeometry x="280" y="480" width="200" height="200" as="geometry"/>
                </mxCell>
            </root>
        </mxGraphModel>
    </diagram>
    <diagram id="FP6h8ks3D5FrZMiYyCGn" name="Page-3">
        <mxGraphModel dx="1504" dy="1036" grid="1" gridSize="10" guides="1" tooltips="1" connect="1" arrows="1" fold="1" page="1" pageScale="1" pageWidth="850" pageHeight="1100" math="0" shadow="0">
            <root>
                <mxCell id="1_JUi2TQ9jgU-iCMvI_Y-0"/>
                <mxCell id="1_JUi2TQ9jgU-iCMvI_Y-1" parent="1_JUi2TQ9jgU-iCMvI_Y-0"/>
                <mxCell id="uW0_F3hgGHjB1Yh1wF-T-0" value="" style="rounded=0;whiteSpace=wrap;html=1;" vertex="1" parent="1_JUi2TQ9jgU-iCMvI_Y-1">
                    <mxGeometry width="850" height="160" as="geometry"/>
                </mxCell>
                <mxCell id="uW0_F3hgGHjB1Yh1wF-T-1" value="&lt;font style=&quot;font-size: 34px&quot;&gt;Footer&lt;/font&gt;" style="rounded=0;whiteSpace=wrap;html=1;" vertex="1" parent="1_JUi2TQ9jgU-iCMvI_Y-1">
                    <mxGeometry y="960" width="850" height="140" as="geometry"/>
                </mxCell>
                <mxCell id="uW0_F3hgGHjB1Yh1wF-T-2" value="&lt;font style=&quot;font-size: 30px&quot;&gt;Logo&lt;/font&gt;" style="whiteSpace=wrap;html=1;aspect=fixed;" vertex="1" parent="1_JUi2TQ9jgU-iCMvI_Y-1">
                    <mxGeometry x="30" y="30" width="80" height="80" as="geometry"/>
                </mxCell>
                <mxCell id="uW0_F3hgGHjB1Yh1wF-T-3" value="&lt;font style=&quot;font-size: 20px&quot;&gt;Nhân Viên&lt;/font&gt;" style="rounded=1;whiteSpace=wrap;html=1;fontSize=30;fontColor=#FFFFFF;" vertex="1" parent="1_JUi2TQ9jgU-iCMvI_Y-1">
                    <mxGeometry x="120" y="40" width="120" height="60" as="geometry"/>
                </mxCell>
                <mxCell id="uW0_F3hgGHjB1Yh1wF-T-4" value="&lt;font style=&quot;font-size: 20px&quot;&gt;Lương&lt;/font&gt;" style="rounded=1;whiteSpace=wrap;html=1;fontSize=30;fillColor=#f5f5f5;fontColor=#333333;strokeColor=#666666;" vertex="1" parent="1_JUi2TQ9jgU-iCMvI_Y-1">
                    <mxGeometry x="380" y="40" width="120" height="60" as="geometry"/>
                </mxCell>
                <mxCell id="uW0_F3hgGHjB1Yh1wF-T-5" value="&lt;font style=&quot;font-size: 20px&quot;&gt;Phòng Ban&lt;/font&gt;" style="rounded=1;whiteSpace=wrap;html=1;fontSize=30;" vertex="1" parent="1_JUi2TQ9jgU-iCMvI_Y-1">
                    <mxGeometry x="250" y="40" width="120" height="60" as="geometry"/>
                </mxCell>
                <mxCell id="uW0_F3hgGHjB1Yh1wF-T-6" value="&lt;font style=&quot;font-size: 20px&quot;&gt;Tìm kiếm&lt;/font&gt;" style="rounded=1;whiteSpace=wrap;html=1;fontSize=30;" vertex="1" parent="1_JUi2TQ9jgU-iCMvI_Y-1">
                    <mxGeometry x="540" y="40" width="290" height="60" as="geometry"/>
                </mxCell>
                <mxCell id="uW0_F3hgGHjB1Yh1wF-T-9" value="Sắp xếp" style="rounded=0;whiteSpace=wrap;html=1;fontSize=20;" vertex="1" parent="1_JUi2TQ9jgU-iCMvI_Y-1">
                    <mxGeometry x="240" y="200" width="360" height="60" as="geometry"/>
                </mxCell>
                <mxCell id="uW0_F3hgGHjB1Yh1wF-T-10" value="" style="shape=link;html=1;fontSize=20;" edge="1" parent="1_JUi2TQ9jgU-iCMvI_Y-1">
                    <mxGeometry width="100" relative="1" as="geometry">
                        <mxPoint x="30" y="280" as="sourcePoint"/>
                        <mxPoint x="830" y="280" as="targetPoint"/>
                    </mxGeometry>
                </mxCell>
                <mxCell id="uW0_F3hgGHjB1Yh1wF-T-11" value="Nhân Viên &lt;br&gt;A" style="whiteSpace=wrap;html=1;aspect=fixed;fontSize=20;" vertex="1" parent="1_JUi2TQ9jgU-iCMvI_Y-1">
                    <mxGeometry x="40" y="320" width="120" height="120" as="geometry"/>
                </mxCell>
                <mxCell id="uW0_F3hgGHjB1Yh1wF-T-12" value="&#10;&#10;&lt;span style=&quot;color: rgb(240, 240, 240); font-family: helvetica; font-size: 20px; font-style: normal; font-weight: 400; letter-spacing: normal; text-align: center; text-indent: 0px; text-transform: none; word-spacing: 0px; background-color: rgb(42, 42, 42); display: inline; float: none;&quot;&gt;Nhân Viên&lt;/span&gt;&lt;br style=&quot;color: rgb(240, 240, 240); font-family: helvetica; font-size: 20px; font-style: normal; font-weight: 400; letter-spacing: normal; text-align: center; text-indent: 0px; text-transform: none; word-spacing: 0px; background-color: rgb(42, 42, 42);&quot;&gt;&lt;span style=&quot;color: rgb(240, 240, 240); font-family: helvetica; font-size: 20px; font-style: normal; font-weight: 400; letter-spacing: normal; text-align: center; text-indent: 0px; text-transform: none; word-spacing: 0px; background-color: rgb(42, 42, 42); display: inline; float: none;&quot;&gt;A&lt;/span&gt;&#10;&#10;" style="whiteSpace=wrap;html=1;aspect=fixed;fontSize=20;" vertex="1" parent="1_JUi2TQ9jgU-iCMvI_Y-1">
                    <mxGeometry x="200" y="320" width="120" height="120" as="geometry"/>
                </mxCell>
                <mxCell id="uW0_F3hgGHjB1Yh1wF-T-13" value="&#10;&#10;&lt;span style=&quot;color: rgb(240, 240, 240); font-family: helvetica; font-size: 20px; font-style: normal; font-weight: 400; letter-spacing: normal; text-align: center; text-indent: 0px; text-transform: none; word-spacing: 0px; background-color: rgb(42, 42, 42); display: inline; float: none;&quot;&gt;Nhân Viên&lt;/span&gt;&lt;br style=&quot;color: rgb(240, 240, 240); font-family: helvetica; font-size: 20px; font-style: normal; font-weight: 400; letter-spacing: normal; text-align: center; text-indent: 0px; text-transform: none; word-spacing: 0px; background-color: rgb(42, 42, 42);&quot;&gt;&lt;span style=&quot;color: rgb(240, 240, 240); font-family: helvetica; font-size: 20px; font-style: normal; font-weight: 400; letter-spacing: normal; text-align: center; text-indent: 0px; text-transform: none; word-spacing: 0px; background-color: rgb(42, 42, 42); display: inline; float: none;&quot;&gt;A&lt;/span&gt;&#10;&#10;" style="whiteSpace=wrap;html=1;aspect=fixed;fontSize=20;" vertex="1" parent="1_JUi2TQ9jgU-iCMvI_Y-1">
                    <mxGeometry x="360" y="320" width="120" height="120" as="geometry"/>
                </mxCell>
                <mxCell id="uW0_F3hgGHjB1Yh1wF-T-14" value="&#10;&#10;&lt;span style=&quot;color: rgb(240, 240, 240); font-family: helvetica; font-size: 20px; font-style: normal; font-weight: 400; letter-spacing: normal; text-align: center; text-indent: 0px; text-transform: none; word-spacing: 0px; background-color: rgb(42, 42, 42); display: inline; float: none;&quot;&gt;Nhân Viên&lt;/span&gt;&lt;br style=&quot;color: rgb(240, 240, 240); font-family: helvetica; font-size: 20px; font-style: normal; font-weight: 400; letter-spacing: normal; text-align: center; text-indent: 0px; text-transform: none; word-spacing: 0px; background-color: rgb(42, 42, 42);&quot;&gt;&lt;span style=&quot;color: rgb(240, 240, 240); font-family: helvetica; font-size: 20px; font-style: normal; font-weight: 400; letter-spacing: normal; text-align: center; text-indent: 0px; text-transform: none; word-spacing: 0px; background-color: rgb(42, 42, 42); display: inline; float: none;&quot;&gt;A&lt;/span&gt;&#10;&#10;" style="whiteSpace=wrap;html=1;aspect=fixed;fontSize=20;" vertex="1" parent="1_JUi2TQ9jgU-iCMvI_Y-1">
                    <mxGeometry x="520" y="320" width="120" height="120" as="geometry"/>
                </mxCell>
                <mxCell id="uW0_F3hgGHjB1Yh1wF-T-15" value="&#10;&#10;&lt;span style=&quot;color: rgb(240, 240, 240); font-family: helvetica; font-size: 20px; font-style: normal; font-weight: 400; letter-spacing: normal; text-align: center; text-indent: 0px; text-transform: none; word-spacing: 0px; background-color: rgb(42, 42, 42); display: inline; float: none;&quot;&gt;Nhân Viên&lt;/span&gt;&lt;br style=&quot;color: rgb(240, 240, 240); font-family: helvetica; font-size: 20px; font-style: normal; font-weight: 400; letter-spacing: normal; text-align: center; text-indent: 0px; text-transform: none; word-spacing: 0px; background-color: rgb(42, 42, 42);&quot;&gt;&lt;span style=&quot;color: rgb(240, 240, 240); font-family: helvetica; font-size: 20px; font-style: normal; font-weight: 400; letter-spacing: normal; text-align: center; text-indent: 0px; text-transform: none; word-spacing: 0px; background-color: rgb(42, 42, 42); display: inline; float: none;&quot;&gt;A&lt;/span&gt;&#10;&#10;" style="whiteSpace=wrap;html=1;aspect=fixed;fontSize=20;" vertex="1" parent="1_JUi2TQ9jgU-iCMvI_Y-1">
                    <mxGeometry x="680" y="320" width="120" height="120" as="geometry"/>
                </mxCell>
                <mxCell id="uW0_F3hgGHjB1Yh1wF-T-16" value="&#10;&#10;&lt;span style=&quot;color: rgb(240, 240, 240); font-family: helvetica; font-size: 20px; font-style: normal; font-weight: 400; letter-spacing: normal; text-align: center; text-indent: 0px; text-transform: none; word-spacing: 0px; background-color: rgb(42, 42, 42); display: inline; float: none;&quot;&gt;Nhân Viên&lt;/span&gt;&lt;br style=&quot;color: rgb(240, 240, 240); font-family: helvetica; font-size: 20px; font-style: normal; font-weight: 400; letter-spacing: normal; text-align: center; text-indent: 0px; text-transform: none; word-spacing: 0px; background-color: rgb(42, 42, 42);&quot;&gt;&lt;span style=&quot;color: rgb(240, 240, 240); font-family: helvetica; font-size: 20px; font-style: normal; font-weight: 400; letter-spacing: normal; text-align: center; text-indent: 0px; text-transform: none; word-spacing: 0px; background-color: rgb(42, 42, 42); display: inline; float: none;&quot;&gt;A&lt;/span&gt;&#10;&#10;" style="whiteSpace=wrap;html=1;aspect=fixed;fontSize=20;" vertex="1" parent="1_JUi2TQ9jgU-iCMvI_Y-1">
                    <mxGeometry x="40" y="480" width="120" height="120" as="geometry"/>
                </mxCell>
                <mxCell id="uW0_F3hgGHjB1Yh1wF-T-17" value="&#10;&#10;&lt;span style=&quot;color: rgb(240, 240, 240); font-family: helvetica; font-size: 20px; font-style: normal; font-weight: 400; letter-spacing: normal; text-align: center; text-indent: 0px; text-transform: none; word-spacing: 0px; background-color: rgb(42, 42, 42); display: inline; float: none;&quot;&gt;Nhân Viên&lt;/span&gt;&lt;br style=&quot;color: rgb(240, 240, 240); font-family: helvetica; font-size: 20px; font-style: normal; font-weight: 400; letter-spacing: normal; text-align: center; text-indent: 0px; text-transform: none; word-spacing: 0px; background-color: rgb(42, 42, 42);&quot;&gt;&lt;span style=&quot;color: rgb(240, 240, 240); font-family: helvetica; font-size: 20px; font-style: normal; font-weight: 400; letter-spacing: normal; text-align: center; text-indent: 0px; text-transform: none; word-spacing: 0px; background-color: rgb(42, 42, 42); display: inline; float: none;&quot;&gt;A&lt;/span&gt;&#10;&#10;" style="whiteSpace=wrap;html=1;aspect=fixed;fontSize=20;" vertex="1" parent="1_JUi2TQ9jgU-iCMvI_Y-1">
                    <mxGeometry x="200" y="480" width="120" height="120" as="geometry"/>
                </mxCell>
                <mxCell id="uW0_F3hgGHjB1Yh1wF-T-18" value="&#10;&#10;&lt;span style=&quot;color: rgb(240, 240, 240); font-family: helvetica; font-size: 20px; font-style: normal; font-weight: 400; letter-spacing: normal; text-align: center; text-indent: 0px; text-transform: none; word-spacing: 0px; background-color: rgb(42, 42, 42); display: inline; float: none;&quot;&gt;Nhân Viên&lt;/span&gt;&lt;br style=&quot;color: rgb(240, 240, 240); font-family: helvetica; font-size: 20px; font-style: normal; font-weight: 400; letter-spacing: normal; text-align: center; text-indent: 0px; text-transform: none; word-spacing: 0px; background-color: rgb(42, 42, 42);&quot;&gt;&lt;span style=&quot;color: rgb(240, 240, 240); font-family: helvetica; font-size: 20px; font-style: normal; font-weight: 400; letter-spacing: normal; text-align: center; text-indent: 0px; text-transform: none; word-spacing: 0px; background-color: rgb(42, 42, 42); display: inline; float: none;&quot;&gt;A&lt;/span&gt;&#10;&#10;" style="whiteSpace=wrap;html=1;aspect=fixed;fontSize=20;" vertex="1" parent="1_JUi2TQ9jgU-iCMvI_Y-1">
                    <mxGeometry x="360" y="480" width="120" height="120" as="geometry"/>
                </mxCell>
                <mxCell id="uW0_F3hgGHjB1Yh1wF-T-19" value="&#10;&#10;&lt;span style=&quot;color: rgb(240, 240, 240); font-family: helvetica; font-size: 20px; font-style: normal; font-weight: 400; letter-spacing: normal; text-align: center; text-indent: 0px; text-transform: none; word-spacing: 0px; background-color: rgb(42, 42, 42); display: inline; float: none;&quot;&gt;Nhân Viên&lt;/span&gt;&lt;br style=&quot;color: rgb(240, 240, 240); font-family: helvetica; font-size: 20px; font-style: normal; font-weight: 400; letter-spacing: normal; text-align: center; text-indent: 0px; text-transform: none; word-spacing: 0px; background-color: rgb(42, 42, 42);&quot;&gt;&lt;span style=&quot;color: rgb(240, 240, 240); font-family: helvetica; font-size: 20px; font-style: normal; font-weight: 400; letter-spacing: normal; text-align: center; text-indent: 0px; text-transform: none; word-spacing: 0px; background-color: rgb(42, 42, 42); display: inline; float: none;&quot;&gt;A&lt;/span&gt;&#10;&#10;" style="whiteSpace=wrap;html=1;aspect=fixed;fontSize=20;" vertex="1" parent="1_JUi2TQ9jgU-iCMvI_Y-1">
                    <mxGeometry x="520" y="480" width="120" height="120" as="geometry"/>
                </mxCell>
                <mxCell id="uW0_F3hgGHjB1Yh1wF-T-20" value="&#10;&#10;&lt;span style=&quot;color: rgb(240, 240, 240); font-family: helvetica; font-size: 20px; font-style: normal; font-weight: 400; letter-spacing: normal; text-align: center; text-indent: 0px; text-transform: none; word-spacing: 0px; background-color: rgb(42, 42, 42); display: inline; float: none;&quot;&gt;Nhân Viên&lt;/span&gt;&lt;br style=&quot;color: rgb(240, 240, 240); font-family: helvetica; font-size: 20px; font-style: normal; font-weight: 400; letter-spacing: normal; text-align: center; text-indent: 0px; text-transform: none; word-spacing: 0px; background-color: rgb(42, 42, 42);&quot;&gt;&lt;span style=&quot;color: rgb(240, 240, 240); font-family: helvetica; font-size: 20px; font-style: normal; font-weight: 400; letter-spacing: normal; text-align: center; text-indent: 0px; text-transform: none; word-spacing: 0px; background-color: rgb(42, 42, 42); display: inline; float: none;&quot;&gt;A&lt;/span&gt;&#10;&#10;" style="whiteSpace=wrap;html=1;aspect=fixed;fontSize=20;" vertex="1" parent="1_JUi2TQ9jgU-iCMvI_Y-1">
                    <mxGeometry x="680" y="480" width="120" height="120" as="geometry"/>
                </mxCell>
                <mxCell id="uW0_F3hgGHjB1Yh1wF-T-21" value="&#10;&#10;&lt;span style=&quot;color: rgb(240, 240, 240); font-family: helvetica; font-size: 20px; font-style: normal; font-weight: 400; letter-spacing: normal; text-align: center; text-indent: 0px; text-transform: none; word-spacing: 0px; background-color: rgb(42, 42, 42); display: inline; float: none;&quot;&gt;Nhân Viên&lt;/span&gt;&lt;br style=&quot;color: rgb(240, 240, 240); font-family: helvetica; font-size: 20px; font-style: normal; font-weight: 400; letter-spacing: normal; text-align: center; text-indent: 0px; text-transform: none; word-spacing: 0px; background-color: rgb(42, 42, 42);&quot;&gt;&lt;span style=&quot;color: rgb(240, 240, 240); font-family: helvetica; font-size: 20px; font-style: normal; font-weight: 400; letter-spacing: normal; text-align: center; text-indent: 0px; text-transform: none; word-spacing: 0px; background-color: rgb(42, 42, 42); display: inline; float: none;&quot;&gt;A&lt;/span&gt;&#10;&#10;" style="whiteSpace=wrap;html=1;aspect=fixed;fontSize=20;" vertex="1" parent="1_JUi2TQ9jgU-iCMvI_Y-1">
                    <mxGeometry x="40" y="650" width="120" height="120" as="geometry"/>
                </mxCell>
                <mxCell id="uW0_F3hgGHjB1Yh1wF-T-22" value="&#10;&#10;&lt;span style=&quot;color: rgb(240, 240, 240); font-family: helvetica; font-size: 20px; font-style: normal; font-weight: 400; letter-spacing: normal; text-align: center; text-indent: 0px; text-transform: none; word-spacing: 0px; background-color: rgb(42, 42, 42); display: inline; float: none;&quot;&gt;Nhân Viên&lt;/span&gt;&lt;br style=&quot;color: rgb(240, 240, 240); font-family: helvetica; font-size: 20px; font-style: normal; font-weight: 400; letter-spacing: normal; text-align: center; text-indent: 0px; text-transform: none; word-spacing: 0px; background-color: rgb(42, 42, 42);&quot;&gt;&lt;span style=&quot;color: rgb(240, 240, 240); font-family: helvetica; font-size: 20px; font-style: normal; font-weight: 400; letter-spacing: normal; text-align: center; text-indent: 0px; text-transform: none; word-spacing: 0px; background-color: rgb(42, 42, 42); display: inline; float: none;&quot;&gt;A&lt;/span&gt;&#10;&#10;" style="whiteSpace=wrap;html=1;aspect=fixed;fontSize=20;" vertex="1" parent="1_JUi2TQ9jgU-iCMvI_Y-1">
                    <mxGeometry x="200" y="650" width="120" height="120" as="geometry"/>
                </mxCell>
                <mxCell id="uW0_F3hgGHjB1Yh1wF-T-23" value="&#10;&#10;&lt;span style=&quot;color: rgb(240, 240, 240); font-family: helvetica; font-size: 20px; font-style: normal; font-weight: 400; letter-spacing: normal; text-align: center; text-indent: 0px; text-transform: none; word-spacing: 0px; background-color: rgb(42, 42, 42); display: inline; float: none;&quot;&gt;Nhân Viên&lt;/span&gt;&lt;br style=&quot;color: rgb(240, 240, 240); font-family: helvetica; font-size: 20px; font-style: normal; font-weight: 400; letter-spacing: normal; text-align: center; text-indent: 0px; text-transform: none; word-spacing: 0px; background-color: rgb(42, 42, 42);&quot;&gt;&lt;span style=&quot;color: rgb(240, 240, 240); font-family: helvetica; font-size: 20px; font-style: normal; font-weight: 400; letter-spacing: normal; text-align: center; text-indent: 0px; text-transform: none; word-spacing: 0px; background-color: rgb(42, 42, 42); display: inline; float: none;&quot;&gt;A&lt;/span&gt;&#10;&#10;" style="whiteSpace=wrap;html=1;aspect=fixed;fontSize=20;" vertex="1" parent="1_JUi2TQ9jgU-iCMvI_Y-1">
                    <mxGeometry x="360" y="650" width="120" height="120" as="geometry"/>
                </mxCell>
                <mxCell id="uW0_F3hgGHjB1Yh1wF-T-24" value="&#10;&#10;&lt;span style=&quot;color: rgb(240, 240, 240); font-family: helvetica; font-size: 20px; font-style: normal; font-weight: 400; letter-spacing: normal; text-align: center; text-indent: 0px; text-transform: none; word-spacing: 0px; background-color: rgb(42, 42, 42); display: inline; float: none;&quot;&gt;Nhân Viên&lt;/span&gt;&lt;br style=&quot;color: rgb(240, 240, 240); font-family: helvetica; font-size: 20px; font-style: normal; font-weight: 400; letter-spacing: normal; text-align: center; text-indent: 0px; text-transform: none; word-spacing: 0px; background-color: rgb(42, 42, 42);&quot;&gt;&lt;span style=&quot;color: rgb(240, 240, 240); font-family: helvetica; font-size: 20px; font-style: normal; font-weight: 400; letter-spacing: normal; text-align: center; text-indent: 0px; text-transform: none; word-spacing: 0px; background-color: rgb(42, 42, 42); display: inline; float: none;&quot;&gt;A&lt;/span&gt;&#10;&#10;" style="whiteSpace=wrap;html=1;aspect=fixed;fontSize=20;" vertex="1" parent="1_JUi2TQ9jgU-iCMvI_Y-1">
                    <mxGeometry x="520" y="650" width="120" height="120" as="geometry"/>
                </mxCell>
                <mxCell id="uW0_F3hgGHjB1Yh1wF-T-25" value="&#10;&#10;&lt;span style=&quot;color: rgb(240, 240, 240); font-family: helvetica; font-size: 20px; font-style: normal; font-weight: 400; letter-spacing: normal; text-align: center; text-indent: 0px; text-transform: none; word-spacing: 0px; background-color: rgb(42, 42, 42); display: inline; float: none;&quot;&gt;Nhân Viên&lt;/span&gt;&lt;br style=&quot;color: rgb(240, 240, 240); font-family: helvetica; font-size: 20px; font-style: normal; font-weight: 400; letter-spacing: normal; text-align: center; text-indent: 0px; text-transform: none; word-spacing: 0px; background-color: rgb(42, 42, 42);&quot;&gt;&lt;span style=&quot;color: rgb(240, 240, 240); font-family: helvetica; font-size: 20px; font-style: normal; font-weight: 400; letter-spacing: normal; text-align: center; text-indent: 0px; text-transform: none; word-spacing: 0px; background-color: rgb(42, 42, 42); display: inline; float: none;&quot;&gt;A&lt;/span&gt;&#10;&#10;" style="whiteSpace=wrap;html=1;aspect=fixed;fontSize=20;" vertex="1" parent="1_JUi2TQ9jgU-iCMvI_Y-1">
                    <mxGeometry x="680" y="650" width="120" height="120" as="geometry"/>
                </mxCell>
                <mxCell id="uW0_F3hgGHjB1Yh1wF-T-26" value="&#10;&#10;&lt;span style=&quot;color: rgb(240, 240, 240); font-family: helvetica; font-size: 20px; font-style: normal; font-weight: 400; letter-spacing: normal; text-align: center; text-indent: 0px; text-transform: none; word-spacing: 0px; background-color: rgb(42, 42, 42); display: inline; float: none;&quot;&gt;Nhân Viên&lt;/span&gt;&lt;br style=&quot;color: rgb(240, 240, 240); font-family: helvetica; font-size: 20px; font-style: normal; font-weight: 400; letter-spacing: normal; text-align: center; text-indent: 0px; text-transform: none; word-spacing: 0px; background-color: rgb(42, 42, 42);&quot;&gt;&lt;span style=&quot;color: rgb(240, 240, 240); font-family: helvetica; font-size: 20px; font-style: normal; font-weight: 400; letter-spacing: normal; text-align: center; text-indent: 0px; text-transform: none; word-spacing: 0px; background-color: rgb(42, 42, 42); display: inline; float: none;&quot;&gt;A&lt;/span&gt;&#10;&#10;" style="whiteSpace=wrap;html=1;aspect=fixed;fontSize=20;" vertex="1" parent="1_JUi2TQ9jgU-iCMvI_Y-1">
                    <mxGeometry x="40" y="800" width="120" height="120" as="geometry"/>
                </mxCell>
            </root>
        </mxGraphModel>
    </diagram>
</mxfile>